<svg width="1200" height="760" viewBox="0 0 1200 760" fill="none" xmlns="http://www.w3.org/2000/svg">
  <defs>
    <linearGradient id="bgGradient" x1="114" y1="38" x2="1042" y2="724" gradientUnits="userSpaceOnUse">
      <stop stop-color="#0F766E"/>
      <stop offset="0.52" stop-color="#0D9488"/>
      <stop offset="1" stop-color="#0284C7"/>
    </linearGradient>
    <linearGradient id="cardGradient" x1="194" y1="200" x2="1006" y2="616" gradientUnits="userSpaceOnUse">
      <stop stop-color="#F0FDFA" stop-opacity="0.95"/>
      <stop offset="1" stop-color="#ECFEFF" stop-opacity="0.82"/>
    </linearGradient>
    <linearGradient id="skin" x1="646" y1="226" x2="710" y2="330" gradientUnits="userSpaceOnUse">
      <stop stop-color="#F8D8B6"/>
      <stop offset="1" stop-color="#EAB48A"/>
    </linearGradient>
    <filter id="shadowSoft" x="80" y="70" width="1040" height="640" filterUnits="userSpaceOnUse" color-interpolation-filters="sRGB">
      <feFlood flood-opacity="0" result="BackgroundImageFix"/>
      <feColorMatrix in="SourceAlpha" type="matrix" values="0 0 0 0 0 0 0 0 0 0 0 0 0 0 0 0 0 0 127 0" result="hardAlpha"/>
      <feOffset dy="22"/>
      <feGaussianBlur stdDeviation="20"/>
      <feColorMatrix type="matrix" values="0 0 0 0 0.02 0 0 0 0 0.2 0 0 0 0 0.22 0 0 0 0.28 0"/>
      <feBlend mode="normal" in2="BackgroundImageFix" result="effect1_dropShadow_1_1"/>
      <feBlend mode="normal" in="SourceGraphic" in2="effect1_dropShadow_1_1" result="shape"/>
    </filter>
  </defs>

  <rect x="6" y="6" width="1188" height="748" rx="34" fill="url(#bgGradient)"/>
  <circle cx="186" cy="128" r="132" fill="#67E8F9" fill-opacity="0.18"/>
  <circle cx="1040" cy="626" r="188" fill="#34D399" fill-opacity="0.22"/>
  <circle cx="1018" cy="160" r="116" fill="#A7F3D0" fill-opacity="0.14"/>

  <g filter="url(#shadowSoft)">
    <rect x="124" y="110" width="952" height="558" rx="32" fill="url(#cardGradient)"/>
  </g>

  <rect x="178" y="174" width="456" height="430" rx="24" fill="#FFFFFF"/>
  <rect x="214" y="214" width="154" height="22" rx="11" fill="#CCFBF1"/>
  <rect x="214" y="252" width="312" height="18" rx="9" fill="#D1FAE5"/>
  <rect x="214" y="282" width="258" height="18" rx="9" fill="#E0F2FE"/>
  <rect x="214" y="330" width="374" height="16" rx="8" fill="#ECFEFF"/>
  <rect x="214" y="356" width="336" height="16" rx="8" fill="#ECFEFF"/>
  <rect x="214" y="382" width="290" height="16" rx="8" fill="#ECFEFF"/>

  <rect x="214" y="432" width="202" height="54" rx="16" fill="#0F766E"/>
  <rect x="432" y="432" width="150" height="54" rx="16" fill="#E0F2FE"/>
  <circle cx="244" cy="459" r="9" fill="#5EEAD4"/>
  <rect x="262" y="451" width="120" height="15" rx="7.5" fill="#CCFBF1"/>

  <g>
    <ellipse cx="788" cy="574" rx="198" ry="32" fill="#0F172A" fill-opacity="0.14"/>
    <path d="M668 426C668 382 704 346 748 346H836C880 346 916 382 916 426V540H668V426Z" fill="#0F766E"/>
    <path d="M706 390C706 355 734 326 769 326H815C850 326 878 355 878 390V540H706V390Z" fill="#14B8A6"/>
    <path d="M726 258C726 226 752 200 784 200C816 200 842 226 842 258V298C842 330 816 356 784 356C752 356 726 330 726 298V258Z" fill="url(#skin)"/>
    <path d="M724 254C724 214 754 184 794 184C826 184 850 203 860 232C848 226 833 222 818 222C786 222 758 242 744 272C734 267 727 261 724 254Z" fill="#0F172A"/>
    <path d="M748 290C768 292 790 292 810 290C808 308 799 320 784 320C769 320 750 308 748 290Z" fill="#EA9B6B"/>
    <circle cx="765" cy="272" r="4" fill="#1E293B"/>
    <circle cx="803" cy="272" r="4" fill="#1E293B"/>
    <path d="M769 302C777 310 791 310 799 302" stroke="#9A3412" stroke-width="4" stroke-linecap="round"/>

    <path d="M626 410C626 388 644 370 666 370H716V540H626V410Z" fill="#0D9488"/>
    <path d="M916 370H958C980 370 998 388 998 410V540H916V370Z" fill="#0D9488"/>

    <rect x="648" y="458" width="274" height="22" rx="11" fill="#0B5C55"/>
    <rect x="688" y="492" width="194" height="18" rx="9" fill="#115E59"/>

    <rect x="706" y="436" width="162" height="100" rx="14" fill="#1E293B"/>
    <rect x="716" y="446" width="142" height="78" rx="8" fill="#F8FAFC"/>
    <rect x="734" y="462" width="76" height="10" rx="5" fill="#CCFBF1"/>
    <rect x="734" y="478" width="112" height="8" rx="4" fill="#D1FAE5"/>
    <rect x="734" y="492" width="96" height="8" rx="4" fill="#E0F2FE"/>
  </g>

  <rect x="868" y="182" width="142" height="110" rx="18" fill="#FFFFFF" fill-opacity="0.88"/>
  <rect x="890" y="208" width="98" height="12" rx="6" fill="#CCFBF1"/>
  <rect x="890" y="228" width="78" height="10" rx="5" fill="#D1FAE5"/>
  <rect x="890" y="248" width="60" height="10" rx="5" fill="#E0F2FE"/>

  <rect x="130" y="648" width="940" height="10" rx="5" fill="#FFFFFF" fill-opacity="0.34"/>
</svg>