<svg width="1200" height="760" viewBox="0 0 1200 760" fill="none" xmlns="http://www.w3.org/2000/svg">
  <defs>
    <linearGradient id="caBg" x1="96" y1="32" x2="1084" y2="726" gradientUnits="userSpaceOnUse">
      <stop stop-color="#134E4A"/>
      <stop offset="0.54" stop-color="#0F766E"/>
      <stop offset="1" stop-color="#0369A1"/>
    </linearGradient>
    <linearGradient id="caPanel" x1="170" y1="120" x2="1036" y2="636" gradientUnits="userSpaceOnUse">
      <stop stop-color="#F0FDFA" stop-opacity="0.97"/>
      <stop offset="1" stop-color="#ECFEFF" stop-opacity="0.84"/>
    </linearGradient>
  </defs>

  <rect x="8" y="8" width="1184" height="744" rx="34" fill="url(#caBg)"/>
  <circle cx="198" cy="116" r="126" fill="#A7F3D0" fill-opacity="0.2"/>
  <circle cx="1032" cy="632" r="186" fill="#7DD3FC" fill-opacity="0.2"/>
  <circle cx="1000" cy="158" r="110" fill="#FDE68A" fill-opacity="0.15"/>

  <rect x="126" y="112" width="948" height="542" rx="30" fill="url(#caPanel)"/>

  <rect x="184" y="168" width="434" height="406" rx="24" fill="#FFFFFF"/>
  <rect x="220" y="204" width="158" height="22" rx="11" fill="#CCFBF1"/>
  <rect x="220" y="240" width="314" height="16" rx="8" fill="#D1FAE5"/>
  <rect x="220" y="266" width="266" height="16" rx="8" fill="#E0F2FE"/>

  <rect x="220" y="314" width="170" height="52" rx="14" fill="#0F766E"/>
  <rect x="398" y="314" width="170" height="52" rx="14" fill="#E0F2FE"/>

  <rect x="220" y="394" width="348" height="130" rx="16" fill="#F8FAFC"/>
  <rect x="242" y="416" width="120" height="10" rx="5" fill="#A7F3D0"/>
  <rect x="242" y="434" width="218" height="8" rx="4" fill="#CCFBF1"/>
  <rect x="242" y="448" width="192" height="8" rx="4" fill="#D1FAE5"/>
  <rect x="242" y="462" width="164" height="8" rx="4" fill="#E0F2FE"/>

  <g>
    <ellipse cx="806" cy="594" rx="210" ry="30" fill="#082F49" fill-opacity="0.2"/>
    <path d="M702 434C702 388 738 352 784 352H872C918 352 954 388 954 434V548H702V434Z" fill="#0F766E"/>
    <path d="M734 398C734 362 762 334 798 334H844C880 334 908 362 908 398V548H734V398Z" fill="#14B8A6"/>

    <ellipse cx="822" cy="270" rx="58" ry="70" fill="#F3C9A2"/>
    <path d="M764 260C764 218 794 188 836 188C866 188 888 202 900 230C888 226 874 224 860 224C824 224 792 244 774 274C768 270 764 264 764 260Z" fill="#0F172A"/>
    <circle cx="802" cy="274" r="4" fill="#1E293B"/>
    <circle cx="840" cy="274" r="4" fill="#1E293B"/>
    <path d="M806 304C814 312 828 312 836 304" stroke="#9A3412" stroke-width="4" stroke-linecap="round"/>

    <rect x="712" y="438" width="244" height="104" rx="16" fill="#1E293B"/>
    <rect x="722" y="448" width="224" height="84" rx="10" fill="#F8FAFC"/>
    <rect x="740" y="464" width="104" height="10" rx="5" fill="#A7F3D0"/>
    <rect x="740" y="480" width="178" height="8" rx="4" fill="#CCFBF1"/>
    <rect x="740" y="494" width="136" height="8" rx="4" fill="#D1FAE5"/>
    <rect x="740" y="514" width="146" height="10" rx="5" fill="#0F766E"/>
  </g>

  <g>
    <rect x="860" y="168" width="160" height="132" rx="18" fill="#FFFFFF" fill-opacity="0.9"/>
    <rect x="882" y="196" width="116" height="16" rx="8" fill="#CCFBF1"/>
    <rect x="882" y="220" width="84" height="12" rx="6" fill="#D1FAE5"/>
    <rect x="882" y="240" width="62" height="12" rx="6" fill="#E0F2FE"/>
    <circle cx="982" cy="246" r="18" fill="#FDE68A"/>
    <path d="M982 236L986 246L996 248L988 255L990 265L982 260L974 265L976 255L968 248L978 246L982 236Z" fill="#92400E"/>
  </g>

  <rect x="130" y="646" width="940" height="10" rx="5" fill="#FFFFFF" fill-opacity="0.34"/>
</svg>
